<svg xmlns="http://www.w3.org/2000/svg" width="430" height="932" viewBox="0 0 430 932">
  <style>
    .frame{fill:#fff;stroke:#111;stroke-opacity:.15}
    .bar{fill:#ffffffcc;stroke:#111;stroke-opacity:.15}
    .input{fill:#fff;stroke:#9ca3af}
    .btn{fill:#111;}
    .btnText{font:16px system-ui; fill:#fff}
    .text{font: 14px system-ui; fill:#111}
    .label{font:12px system-ui; fill:#6b7280}
    .title{font:16px system-ui; font-weight:700}
  </style>
  <rect x="0.5" y="0.5" width="429" height="931" rx="24" class="frame"/>
  <rect x="0" y="0" width="430" height="56" class="bar"/>
  <text x="52" y="34" class="title">기록하기</text>
  <g transform="translate(16,72)">
    <text x="0" y="0" class="label">날짜</text>
    <rect x="0" y="8" width="398" height="40" rx="8" class="input"/>

    <text x="0" y="66" class="label">홈팀</text>
    <rect x="0" y="74" width="190" height="40" rx="8" class="input"/>
    <text x="208" y="66" class="label">원정팀</text>
    <rect x="208" y="74" width="190" height="40" rx="8" class="input"/>

    <text x="0" y="132" class="label">구장</text>
    <rect x="0" y="140" width="398" height="40" rx="8" class="input"/>

    <text x="0" y="198" class="label">좌석</text>
    <rect x="0" y="206" width="122" height="40" rx="8" class="input"/>
    <rect x="138" y="206" width="122" height="40" rx="8" class="input"/>
    <rect x="276" y="206" width="122" height="40" rx="8" class="input"/>

    <text x="0" y="264" class="label">평점(1~5)</text>
    <rect x="0" y="272" width="398" height="40" rx="8" class="input"/>

    <text x="0" y="330" class="label">하이라이트</text>
    <rect x="0" y="338" width="398" height="40" rx="8" class="input"/>

    <text x="0" y="396" class="label">메모</text>
    <rect x="0" y="404" width="398" height="120" rx="8" class="input"/>

    <text x="0" y="540" class="label">사진</text>
    <rect x="0" y="548" width="398" height="40" rx="8" class="input"/>
  </g>
  <g transform="translate(16, 800)">
    <rect x="0" y="0" width="398" height="44" rx="8" class="btn"/>
    <text x="170" y="28" class="btnText">저장</text>
  </g>
  <rect x="0" y="876" width="430" height="56" class="bar"/>
  <text x="36" y="910" class="text">홈</text>
  <text x="116" y="910" class="text">기록</text>
  <text x="196" y="910" class="text">목록</text>
  <text x="276" y="910" class="text">통계</text>
  <text x="356" y="910" class="text">설정</text>
</svg>

