<svg xmlns="http://www.w3.org/2000/svg" width="430" height="932" viewBox="0 0 430 932">
  <style>
    .frame{fill:#fff;stroke:#111;stroke-opacity:.15}
    .bar{fill:#ffffffcc;stroke:#111;stroke-opacity:.15}
    .card{fill:#fff;stroke:#e5e7eb}
    .title{font:16px system-ui; font-weight:700}
    .text{font:14px system-ui; fill:#111}
    .muted{font:12px system-ui; fill:#6b7280}
    .kpi{font:24px system-ui; font-weight:700}
  </style>
  <rect x="0.5" y="0.5" width="429" height="931" rx="24" class="frame"/>
  <rect x="0" y="0" width="430" height="56" class="bar"/>
  <text x="52" y="34" class="title">통계</text>
  <g transform="translate(16,72)">
    <g>
      <rect x="0" y="0" width="190" height="90" rx="12" class="card"/>
      <text x="12" y="26" class="muted">총 기록 수</text>
      <text x="12" y="62" class="kpi">24</text>
    </g>
    <g transform="translate(208,0)">
      <rect x="0" y="0" width="190" height="90" rx="12" class="card"/>
      <text x="12" y="26" class="muted">평균 평점</text>
      <text x="12" y="62" class="kpi">4.2</text>
    </g>
    <g transform="translate(0,106)">
      <rect x="0" y="0" width="398" height="120" rx="12" class="card"/>
      <text x="12" y="26" class="muted">구장별 방문</text>
      <text x="12" y="52" class="text">잠실 8 · 고척 6 · 사직 4 · …</text>
    </g>
  </g>
  <rect x="0" y="876" width="430" height="56" class="bar"/>
  <text x="36" y="910" class="text">홈</text>
  <text x="116" y="910" class="text">기록</text>
  <text x="196" y="910" class="text">목록</text>
  <text x="276" y="910" class="text">통계</text>
  <text x="356" y="910" class="text">설정</text>
</svg>

